<svg width="13" height="13" viewBox="0 0 13 13" fill="none" xmlns="http://www.w3.org/2000/svg">
<path d="M11.7545 5.56507L7.0668 0.898377C6.61302 0.4446 5.87555 0.4446 5.42054 0.898377L0.734024 5.56507C0.514724 5.7856 0.390991 6.08187 0.390991 6.39223C0.390991 6.70259 0.513493 7.00009 0.734024 7.21939L5.42054 11.8861C5.64805 12.1124 5.94678 12.2256 6.24428 12.2256C6.54179 12.2256 6.84039 12.1124 7.0668 11.8861L11.7545 7.21939C11.9738 7.00009 12.0987 6.70259 12.0987 6.39223C12.0987 6.08187 11.9749 5.78437 11.7545 5.56507ZM6.24428 9.4128L3.21086 6.39223L6.24428 3.37166L9.2788 6.39223L6.24428 9.4128Z" fill="#212121"/>
</svg>
